<?xml version="1.0" standalone="no"?>
<!DOCTYPE svg PUBLIC "-//W3C//DTD SVG 20010904//EN"
 "http://www.w3.org/TR/2001/REC-SVG-20010904/DTD/svg10.dtd">
<svg version="1.0" xmlns="http://www.w3.org/2000/svg"
 width="360.000000pt" height="277.000000pt" viewBox="0 0 360.000000 277.000000"
 preserveAspectRatio="xMidYMid meet">

<g transform="translate(0.000000,277.000000) scale(0.100000,-0.100000)"
fill="#000000" stroke="none">
<path d="M1145 1518 c-16 -6 -41 -19 -55 -28 -14 -10 -44 -27 -68 -39 -24 -12
-85 -57 -135 -101 -51 -43 -132 -109 -182 -147 -86 -66 -115 -103 -80 -103 20
0 114 63 180 122 112 99 277 210 339 229 78 24 78 24 70 -8 -8 -35 -90 -198
-119 -238 -13 -16 -48 -80 -80 -141 -41 -80 -55 -118 -50 -133 11 -35 55 -27
122 23 33 24 70 49 83 56 20 11 22 10 17 -3 -37 -96 -28 -140 26 -130 51 9
140 56 185 96 10 9 24 17 30 17 6 0 15 6 19 14 4 7 28 26 52 42 24 16 55 36
69 46 13 9 43 33 66 52 46 41 65 55 227 164 119 79 220 125 239 106 6 -6 -6
-33 -36 -78 -66 -99 -104 -183 -104 -234 0 -30 5 -44 16 -49 18 -7 124 15 124
26 0 4 19 18 43 31 23 13 59 38 80 57 20 18 45 33 55 33 11 0 27 9 37 20 10
11 25 20 32 20 17 0 10 -47 -14 -94 -17 -33 -10 -76 13 -76 29 0 91 39 159
102 138 126 202 157 170 83 -7 -19 -28 -84 -45 -144 -36 -127 -32 -151 23
-151 26 0 55 16 126 70 50 39 96 70 100 70 14 0 23 32 12 43 -10 10 -80 -27
-157 -85 -58 -43 -64 -45 -64 -20 0 25 48 161 66 186 14 21 19 82 8 110 -9 23
-78 21 -129 -4 -22 -11 -76 -51 -119 -90 -70 -62 -96 -80 -96 -65 0 2 11 30
25 61 14 31 25 67 25 80 0 20 -5 24 -31 24 -16 0 -40 -7 -52 -15 -185 -126
-327 -215 -345 -215 -13 0 16 67 69 156 68 115 83 169 54 190 -26 20 -103 17
-150 -5 -61 -28 -305 -195 -395 -271 -68 -58 -137 -106 -213 -149 -33 -18 -78
-46 -100 -62 -40 -29 -42 -30 -45 -10 -4 28 50 139 108 221 26 37 29 64 6 68
-12 3 -42 -19 -90 -65 -81 -79 -200 -183 -210 -183 -16 0 0 33 75 158 95 157
126 221 138 286 8 41 6 51 -10 67 -21 21 -66 24 -114 7z"/>
<path d="M64 1389 c-14 -23 17 -29 173 -35 180 -7 213 -3 213 25 0 18 -10 19
-190 20 -122 0 -192 -3 -196 -10z"/>
<path d="M3154 1389 c-14 -23 17 -29 173 -35 180 -7 213 -3 213 25 0 18 -10
19 -190 20 -122 0 -192 -3 -196 -10z"/>
</g>
</svg>
